<?xml version="1.0" standalone="no"?>
<!DOCTYPE svg PUBLIC "-//W3C//DTD SVG 20010904//EN"
 "http://www.w3.org/TR/2001/REC-SVG-20010904/DTD/svg10.dtd">
<svg version="1.0" xmlns="http://www.w3.org/2000/svg"
 width="512.000000pt" height="512.000000pt" viewBox="0 0 512.000000 512.000000"
 preserveAspectRatio="xMidYMid meet">
<metadata>
Created by potrace 1.11, written by Peter Selinger 2001-2013
</metadata>
<g transform="translate(0.000000,512.000000) scale(0.100000,-0.100000)"
fill="#000000" stroke="none">
<path d="M852 5107 c-35 -42 -43 -130 -18 -191 22 -54 154 -263 361 -576 261
-393 355 -539 355 -548 0 -5 -26 -39 -58 -78 -164 -195 -366 -504 -481 -739
-142 -288 -196 -443 -207 -590 -5 -71 -3 -85 18 -124 13 -25 40 -58 61 -75 31
-25 49 -31 100 -33 117 -7 188 62 208 202 32 224 248 646 516 1005 37 50 69
90 72 90 7 -1 219 -303 227 -324 3 -9 -21 -54 -59 -108 -209 -303 -431 -796
-503 -1120 -47 -215 -51 -397 -11 -475 61 -116 224 -138 314 -41 40 43 51 86
51 203 0 122 22 239 73 394 38 115 144 371 200 483 61 122 179 319 188 314 4
-3 67 -84 140 -180 l132 -175 -36 -75 c-48 -100 -139 -347 -170 -460 -27 -100
-55 -295 -55 -383 0 -186 203 -279 329 -152 41 40 57 96 70 234 12 139 34 228
94 391 l44 116 79 -93 c43 -52 104 -121 135 -155 l56 -60 -44 -134 c-84 -254
-102 -350 -148 -771 -26 -243 -25 -267 18 -329 45 -68 153 -99 230 -66 39 17
92 71 106 109 6 15 22 132 36 260 14 127 30 266 36 307 12 89 55 270 66 281
14 14 417 -457 661 -773 91 -118 118 -142 183 -159 65 -17 123 2 175 56 74 76
77 162 10 259 -116 169 -608 755 -800 954 -34 35 -63 68 -65 73 -7 21 199 356
332 539 143 196 500 548 761 749 101 78 129 121 129 196 0 80 -47 147 -125
179 -96 40 -148 14 -404 -203 -209 -177 -483 -448 -597 -592 -90 -113 -253
-351 -319 -466 -29 -51 -55 -92 -58 -92 -3 0 -60 66 -128 146 l-122 145 47 67
c146 207 374 428 573 556 150 96 167 108 189 141 47 68 40 163 -17 226 -45 50
-85 68 -150 68 -57 0 -92 -17 -243 -116 -219 -144 -455 -367 -629 -594 l-25
-33 -119 159 c-66 88 -124 165 -129 171 -10 14 11 41 187 241 147 166 391 357
552 432 33 15 96 35 140 44 92 19 138 50 171 116 30 57 29 104 -2 166 -26 52
-70 88 -126 104 -41 12 -182 -10 -258 -40 -253 -99 -566 -332 -785 -584 -66
-75 -123 -133 -126 -129 -4 5 -53 75 -110 156 l-102 149 33 35 c54 56 189 167
250 205 73 47 103 95 104 168 0 73 -28 127 -87 163 -87 54 -153 46 -270 -33
-40 -27 -111 -83 -158 -125 -46 -41 -88 -75 -92 -75 -3 0 -37 48 -75 108 -37
59 -147 226 -244 372 -97 146 -215 328 -262 405 l-85 140 -149 3 c-114 2 -153
-1 -161 -11z"/>
</g>
</svg>
